<svg version="1.2" xmlns="http://www.w3.org/2000/svg" viewBox="0 0 1024 1024" width="1024" height="1024">
	<title>DALL·E 2024-09-30 23</title>
	<style>
		.s0 { fill: #ffffff } 
	</style>
	<g id="Layer 1">
		<path id="форма 4" fill-rule="evenodd" class="s0" d="m512.5 826.9v-35.5c0 0-43.5-0.2-70.8-51.5-32-60-239.1-107.1-322.9-80.6l28-361.9c0 0-19.4-3.9-33.1 15.3l-31.7 379.6c0 0 2 13.3 35.6 0 0 0 144.7-35.7 294.5 57.2 0 0 26.7 74.5 100.4 77.4z"/>
		<path id="форма 4 copy" fill-rule="evenodd" class="s0" d="m511.2 826.9v-35.5c0 0 43.4-0.2 70.8-51.5 31.9-60 239.1-107.1 322.8-80.6l-27.9-361.9c0 0 19.4-3.9 33 15.3l31.8 379.6c0 0-2 13.3-35.6 0 0 0-144.8-35.7-294.6 57.2 0 0-26.6 74.5-100.3 77.4z"/>
		<path id="форма 3" fill-rule="evenodd" class="s0" d="m165.6 624.2l1.2-17.9c0 0 75-39.5 202.9 23.9 0 0 56.6 23.3 99.2 65.5 16.3 16.2 30 31.9 42.9 36v22.8c0 0-14.2 3.3-35.8-26.4 0 0-113.4-122.2-310.4-103.9z"/>
		<path id="форма 3 copy" fill-rule="evenodd" class="s0" d="m856.8 624.2l-1.2-17.9c0 0-75-39.5-202.9 23.9 0 0-56.6 23.3-99.2 65.5-16.4 16.2-30.1 31.9-42.9 36v22.8c0 0 14.1 3.3 35.8-26.4 0 0 113.4-122.2 310.4-103.9z"/>
		<path id="форма 2" fill-rule="evenodd" class="s0" d="m193 244.6l-18.9 309.2c0 0 199.4-37.3 325.7 142 0 0 13.1-16.8-54.9-89.5 0 0-103-89.7-244.7-81.2l14.5-274.1c0 0-14.8 0.1-21.7-6.4z"/>
		<path id="форма 2 copy" fill-rule="evenodd" class="s0" d="m829.3 244.6l19 309.2c0 0-199.4-37.3-325.8 142 0 0-13-16.8 54.9-89.5 0 0 103.1-89.7 244.8-81.2l-14.5-274.1c0 0 14.8 0.1 21.6-6.4z"/>
		<path id="форма 1" fill-rule="evenodd" class="s0" d="m243.2 198c0 0 210.3 27.2 259.4 120.5v322.4c0 0-47.4-119.9-275-148z"/>
		<path id="форма 1 copy" fill-rule="evenodd" class="s0" d="m779.5 198c0 0-210.3 27.2-259.4 120.5v322.4c0 0 47.5-119.9 275-148z"/>
	</g>
</svg>