<svg version="1.2" xmlns="http://www.w3.org/2000/svg" viewBox="0 0 1024 1024" width="1024" height="1024">
	<title>DALL·E 2024-09-30 23</title>
	<style>
		.s0 { fill: #ffffff } 
	</style>
	<g id="Layer 1">
		<path id="форма 3" fill-rule="evenodd" class="s0" d="m378.3 635.9h270.8c0 0-21.9-35.7-38-101.8 0 0-10.2-55-11.5-93.4h-174.6c0 0-10.1 143.4-46.7 195.2z"/>
		<path id="форма 1" fill-rule="evenodd" class="s0" d="m422.3 300.5h181.4c0 0 55-42.8 54.4-109.4 0 0 4.6-138.8-144-145.7 0 0-99.2-0.1-134.6 83.6 0 0-49.3 105.3 42.8 171.5z"/>
		<path id="форма 2" fill-rule="evenodd" class="s0" d="m342.6 369c0 0-2.1-30.3 35.3-28.7 6.1 0.4 275.3 0 275.3 0 0 0 26.1-1.3 30.2 30.3 0 0-0.5 21.1-24.7 27.5h-292.8c0 0-23.4-3.4-23.3-29.1z"/>
		<path id="форма 2 copy" fill-rule="evenodd" class="s0" d="m312.4 701.6c0 0-2.5-27.4 41.6-25.9 7.1 0.3 324 0 324 0 0 0 30.8-1.2 35.7 27.3 0 0-0.7 19.2-29.2 25h-344.6c0 0-27.7-3.1-27.5-26.4z"/>
		<path id="форма 2 copy 2" fill-rule="evenodd" class="s0" d="m242.3 936.7c0 0-3.3-27.5 56.1-26 9.7 0.3 437.3 0 437.3 0 0 0 41.5-1.2 48.1 27.4 0 0-0.9 19.1-39.4 24.9h-465c0 0-37.3-3.1-37.1-26.3z"/>
		<path id="форма 4" fill-rule="evenodd" class="s0" d="m276.6 869.5h474.2c0 0 38-20.2 11-74.2 0 0-7.7-24.7-35.8-31.6h-427.4c0 0-45 7.5-45.4 67.4 0 0-0.2 30.4 23.4 38.4z"/>
	</g>
</svg>