<svg version="1.2" xmlns="http://www.w3.org/2000/svg" viewBox="0 0 1024 1024" width="1024" height="1024">
	<title>DALL·E 2024-10-01 00</title>
	<style>
		.s0 { fill: #ffffff } 
	</style>
	<g id="Layer 1">
		<path id="форма 1" fill-rule="evenodd" class="s0" d="m202.9 503.7c0 0 37.1-22.7 53.6-44.7l45.1-61.9c0 0 31.5-50.8 39.8-54.3 0 0 49.2-59.4 155.7-69.3 0 0 171.8-32 201.4-40.4 0 0 61 0.1 76.3-6.5 0 0 47.3-18.7 58.1-40.2 0 0-47.2 97.5-125.1 129.6 0 0-48.8 27.2-89.4 26.8h-138.5c0 0-18.3 3.9-22.3 13.8 0 0 223.2 13.6 280.5 51.1 0 0-79.7 25.3-126.4 18.5 0 0 6 6.1 19 12 0 0 116.4 48.6 139.6 262.1 0 0-3.8 96.8-26.8 138.5 0 0 8.1-122.7-53.6-232.4 0 0-42.1-89.1-121.8-115.6 0 0 73.9 20.1 120.4 158.2 0 0 19.4 100-70.1 212.1 0 0 39.5-100 1.9-200 0 0-21.5-59.7-64.4-103.8 0 0 81.2 114.9 58.1 214.5 0 0-49.8 120.2-116.2 169.8l-62.6-53.6c0 0 58.8-67.7 81.4-116.4 0 0 29.1-101.1 16.9-151.7 0 0-34.7-82.2-71.5-107.3 0 0 85.6 90.4 53.7 205.6 0 0-61.3 117.9-107.3 138.5 0 0-4.4-31.1-58.1-26.8l-98.3 53.6c0 0-12.9-29.1 97.9-99.1 0 0 96-114.7 98.7-160.1 0 0 6.7-73.7-62.5-53.6l-98.3 35.7c0 0-20-13.9-18.6-42 0 0-11.5-18.1-30.6-16 0 0-40.7-22.9-35.7-44.7z"/>
		<path id="форма 3" fill-rule="evenodd" class="s0" d="m42 494.7l464.7-464.7 167.6 167.6-24.6 24.6-145.2-145.3-417.9 417.8 242.1 261z"/>
		<path id="форма 4" fill-rule="evenodd" class="s0" d="m743.5 324.9l24.7-24.6 185.5 185.5-147.5 147.5v-45l100.4-100.4z"/>
	</g>
</svg>