<svg xmlns="http://www.w3.org/2000/svg" viewBox="0 0 100 100"><path d="M65.914 88.516H52.395l12.395-.896-7.135-49.309h2.864a3.24 3.24 0 003.242-3.243 3.24 3.24 0 00-3.242-3.242h-14.36s9.016-.725 9.469-.803 1.068-.359 1.287-.861l7.337-20.907-12.177 8.267 3.06-3.38-4.205-4.661a2.337 2.337 0 10-1.859 0l-4.544 4.544 3.398 3.524-12.177-8.294 7.939 22.571H39.48a3.243 3.243 0 100 6.485h3.088l-7.543 50.206h-.945a3.243 3.243 0 000 6.484h31.831a3.245 3.245 0 003.245-3.242 3.24 3.24 0 00-3.242-3.243z"/></svg>