<?xml version="1.0"?>
<svg xmlns="http://www.w3.org/2000/svg" height="500" width="500" viewBox="0 0 500 500">
  <defs>
    <linearGradient id="l">
      <stop offset="0" stop-color="#fff"/>
      <stop offset="1" stop-color="#fff" stop-opacity="0"/>
    </linearGradient>
    <linearGradient id="r">
      <stop offset="0" stop-color="#50e1e5"/>
      <stop offset=".165" stop-color="#5c839a"/>
      <stop offset=".823" stop-color="#292836"/>
      <stop offset="1" stop-color="#321916"/>
    </linearGradient>
    <linearGradient id="p">
      <stop offset="0" stop-color="#fff"/>
      <stop offset="1" stop-color="#fff" stop-opacity="0"/>
    </linearGradient>
    <linearGradient id="j">
      <stop offset="0"/>
      <stop offset="1" stop-opacity="0"/>
    </linearGradient>
    <linearGradient id="m">
      <stop offset="0" stop-color="#0cf"/>
      <stop offset="1" stop-color="#04a"/>
    </linearGradient>
    <linearGradient id="o">
      <stop offset="0" stop-color="navy" stop-opacity="0"/>
      <stop offset="1" stop-color="#0cf"/>
    </linearGradient>
    <linearGradient id="i">
      <stop offset="0" stop-color="#fff"/>
      <stop offset="1" stop-color="#fff" stop-opacity="0"/>
    </linearGradient>
    <linearGradient id="h">
      <stop offset="0" stop-color="red"/>
      <stop offset="1" stop-color="maroon"/>
    </linearGradient>
    <linearGradient id="k">
      <stop offset="0" stop-color="#b3b3b3"/>
      <stop offset="1" stop-color="#fff" stop-opacity="0"/>
    </linearGradient>
    <linearGradient id="n">
      <stop offset="0" stop-color="red"/>
      <stop offset="1" stop-color="#ff0" stop-opacity="0"/>
    </linearGradient>
    <linearGradient id="q">
      <stop offset="0" stop-color="#fff"/>
      <stop offset="1" stop-color="#fff" stop-opacity="0"/>
    </linearGradient>
    <linearGradient id="f">
      <stop offset="0" stop-color="#666"/>
      <stop offset="1" stop-color="#e6e6e6"/>
    </linearGradient>
    <linearGradient id="e">
      <stop offset="0" stop-color="#fff"/>
      <stop offset="1" stop-color="#fff" stop-opacity="0"/>
    </linearGradient>
    <linearGradient id="a">
      <stop offset="0" stop-color="#fff"/>
      <stop offset="1" stop-color="#fff" stop-opacity="0"/>
    </linearGradient>
    <linearGradient id="b">
      <stop offset="0" stop-color="#fff"/>
      <stop offset="1" stop-color="#fff" stop-opacity="0"/>
    </linearGradient>
    <linearGradient id="c">
      <stop offset="0" stop-color="#fff"/>
      <stop offset="1" stop-color="#fff" stop-opacity="0"/>
    </linearGradient>
    <linearGradient id="d">
      <stop offset="0" stop-color="#fff"/>
      <stop offset="1" stop-color="#fff" stop-opacity="0"/>
    </linearGradient>
    <linearGradient id="g">
      <stop offset="0" stop-color="#fff"/>
      <stop offset="1" stop-color="#fff" stop-opacity="0"/>
    </linearGradient>
  </defs>
  <path d="M155.465 496.47c0-.565-.424-1.553-.989-2.4-.847-1.271-.988-2.683-.847-10.873.141-10.59.565-11.579 4.8-13.98 1.13-.705 2.401-1.976 2.825-2.682.423-1.13.282-1.695-1.836-4.095-2.824-3.107-3.953-5.507-3.953-8.19 0-2.118 1.553-5.79 3.106-7.484.706-.564 1.836-2.118 2.824-3.388.847-1.271 3.389-4.378 5.648-6.778 12.99-15.109 23.581-28.382 24.852-31.77 1.13-2.542 1.13-7.061 0-12.85-.988-5.084-1.13-8.896-.282-10.45.282-.564 2.541-2.541 4.942-4.377 8.19-6.354 9.32-8.19 13.979-24.428 6.919-24.004 10.025-45.044 11.578-76.814.565-12.99.565-32.053 0-42.079-.423-7.342.848-6.354-11.578-8.19-10.026-1.412-13.556-2.259-20.475-4.942-5.648-2.118-10.308-5.648-10.308-7.907 0-2.683 5.225-6.213 14.12-9.32 4.096-1.411 4.66-2.4 3.107-5.224-.706-1.553-.706-1.694.424-2.965 1.977-2.26 6.636-4.095 10.873-4.519 2.118-.14 4.094-.565 4.377-.988.565-.847.423-10.45-.141-11.579-.424-.706-.989-1.13-1.412-1.13-1.412 0-4.237-2.823-4.801-5.083-.848-2.4.14-4.942 2.541-6.636 4.095-2.824 3.954-2.683 2.966-4.378-.565-.706-1.977-3.953-3.248-6.918-1.13-3.107-3.389-8.331-4.801-11.72-1.412-3.39-3.248-7.908-4.095-9.885-.847-1.976-2.26-5.648-3.389-7.907-2.4-5.083-5.93-14.403-6.919-18.215-1.553-6.072 0-10.873 4.236-12.285 2.542-.847 12.003-1.694 19.345-1.694h6.354l1.977-4.236c1.977-4.519 1.977-4.378 7.202-5.084 2.965-.423 3.106-.847 1.553-2.965-2.4-3.53-1.977-6.636 1.835-11.579 1.554-1.835 2.118-3.247 2.118-4.66v-1.976l-7.2-.141-7.202-.141V32.759h8.896c7.06 0 9.037-.141 9.46-.847.565-.847.141-2.118-1.13-3.53-1.27-1.553-2.259-6.637-1.553-7.766.706-.565 13.98-11.72 18.074-9.602 5.648 2.824 11.438 5.93 16.239 10.166 0 .424-.848 2.4-1.695 4.66-2.4 5.507-2.26 6.213 1.695 6.778 1.694.141 5.789.282 9.178.424h6.072v1.553c.282 10.308-.142 25.981-.706 26.546-.424.424-2.683.706-7.343.847-6.778.141-6.919.141-7.06 1.412-.141.847.565 2.542 1.694 4.236 4.095 6.072 4.66 8.472 2.683 11.438-1.977 2.824-1.27 4.236 1.977 4.236 1.694 0 3.389 1.977 4.236 4.942.424 1.412 1.27 2.824 1.977 3.248.706.423 4.377.847 10.449 1.13 10.025.423 12.85.846 14.967 2.258 4.943 3.248 4.519 9.037-2.259 24.852-1.412 3.389-3.53 8.331-4.66 11.014-2.682 6.919-8.33 20.333-11.013 26.264-1.13 2.824-2.118 5.365-2.118 5.648 0 .424.847.988 1.976 1.553 2.26 1.13 4.237 3.954 4.237 6.072 0 1.977-2.118 5.083-4.237 6.213a7.631 7.631 0 00-2.118 1.412c-.282.282-.423 3.248-.282 6.495l.141 5.93 1.695.142c5.224.424 8.613 1.412 11.437 3.389 1.553 1.13 2.965 2.259 2.965 2.683 0 .423-.423 1.412-.847 2.541-.565.989-.847 2.118-.706 2.4.141.424 1.836 1.272 3.53 1.836 4.801 1.412 10.308 4.236 12.567 6.213 3.53 3.39 1.977 6.355-4.8 9.602-7.202 3.389-18.498 6.213-30.218 7.343-1.977.282-4.095.706-4.519.847-.988.706-.847 41.09.424 57.61.847 11.438 2.965 29.936 4.236 37.56 3.248 18.216 9.32 40.526 12.708 46.457 1.271 2.118 5.084 5.648 11.297 10.59 1.835 1.412 2.118 2.118 2.4 4.518.141 1.695-.141 5.084-.706 7.908-1.412 6.777-1.412 10.731.141 13.555 1.13 2.26 8.755 12.285 12.99 17.086 1.13 1.412 4.237 5.083 6.92 8.33 2.683 3.107 6.919 8.332 9.46 11.297 4.801 5.648 7.484 10.167 7.484 12.567 0 1.977-1.977 5.93-4.236 8.049-2.541 2.4-2.541 4.094-.141 5.648.988.706 2.542 1.977 3.389 2.683l1.553 1.412v10.166c0 6.354-.282 10.873-.706 12.285l-.706 2.26h-94.747c-84.863 0-94.747-.142-94.747-.848z" fill="#fff" stroke="#000" stroke-width="5.225"/>
</svg>
